<svg height="512pt" viewBox="0 0 512 512" width="512pt" xmlns="http://www.w3.org/2000/svg"><path d="m512 198v71c0 25.914062-21.085938 47-47 47-10.042969 0-19.355469-3.175781-27-8.5625-7.644531 5.386719-16.957031 8.5625-27 8.5625-25.914062 0-47-21.085938-47-47v-71h40v71c0 3.859375 3.140625 7 7 7s7-3.140625 7-7v-71h40v71c0 3.859375 3.140625 7 7 7s7-3.140625 7-7v-71zm-438 109.4375c7.644531 5.386719 16.957031 8.5625 27 8.5625 25.914062 0 47-21.085938 47-47v-71h-40v71c0 3.859375-3.140625 7-7 7s-7-3.140625-7-7v-71h-40v71c0 3.859375-3.140625 7-7 7s-7-3.140625-7-7v-71h-40v71c0 25.914062 21.085938 47 47 47 10.042969 0 19.355469-3.175781 27-8.5625zm110-109.4375v71c0 25.914062 21.085938 47 47 47 10.042969 0 19.355469-3.175781 27-8.5625 7.644531 5.386719 16.957031 8.5625 27 8.5625 25.914062 0 47-21.085938 47-47v-71h-40v71c0 3.859375-3.140625 7-7 7s-7-3.140625-7-7v-71h-40v71c0 3.859375-3.140625 7-7 7s-7-3.140625-7-7v-71zm312.09375-40.003906h-478.1875l17.363281-30.011719c22.101563-38.207031 53.882813-70.25 91.910157-92.667969 39.195312-23.101562 84.085937-35.316406 129.820312-35.316406s90.625 12.214844 129.820312 35.316406c38.023438 22.417969 69.808594 54.460938 91.910157 92.667969zm-313.449219-40h54.355469v-72.890625c-20.605469 10.453125-40.066406 36.425781-54.355469 72.890625zm94.355469 0h54.355469c-14.289063-36.464844-33.75-62.4375-54.355469-72.890625zm-186.140625 0h49.226563c7.484374-22.289063 16.601562-41.835938 27.027343-58.273438-29.238281 13.417969-55.40625 33.261719-76.253906 58.273438zm332.28125 0c-20.847656-25.011719-47.015625-44.855469-76.253906-58.273438 10.425781 16.4375 19.542969 35.984375 27.027343 58.273438zm-405.238281 236h478.191406l-17.363281 30.015625c-22.101563 38.207031-53.882813 70.253906-91.910157 92.667969-39.195312 23.105468-84.085937 35.320312-129.820312 35.320312s-90.625-12.214844-129.820312-35.320312c-38.027344-22.414063-69.8125-54.460938-91.910157-92.667969zm313.453125 40h-54.355469v72.898437c20.605469-10.453125 40.066406-36.425781 54.355469-72.898437zm-94.355469 0h-54.355469c14.289063 36.472656 33.75 62.445312 54.355469 72.898437zm186.144531 0h-49.230469c-7.480468 22.292968-16.601562 41.84375-27.027343 58.28125 29.238281-13.421875 55.410156-33.265625 76.257812-58.28125zm-332.289062 0c20.847656 25.015625 47.015625 44.859375 76.257812 58.28125-10.425781-16.4375-19.546875-35.988282-27.027343-58.28125zm0 0"/></svg>