<?xml version="1.0" standalone="no"?>
<!DOCTYPE svg PUBLIC "-//W3C//DTD SVG 1.1//EN" "http://www.w3.org/Graphics/SVG/1.1/DTD/svg11.dtd">
<svg xmlns="http://www.w3.org/2000/svg">
<metadata>Copyright (C) 2019 by original authors @ fontello.com</metadata>
<defs>
<font id="fontello" horiz-adv-x="1000" >
<font-face font-family="fontello" font-weight="400" font-stretch="normal" units-per-em="1000" ascent="850" descent="-150" />
<missing-glyph horiz-adv-x="1000" />
<glyph glyph-name="eye-close-up" unicode="&#xe800;" d="M500 677c-221 0-411-130-498-318-3-6-3-12 0-18 87-188 277-318 498-318s411 130 498 318c3 6 3 12 0 18-87 188-277 318-498 318z m0-552c-125 0-225 101-225 225 0 125 101 225 225 225 125 0 225-101 225-225s-101-225-225-225z" horiz-adv-x="1000" />

<glyph glyph-name="facebook" unicode="&#xe801;" d="M563 506v125c0 35 28 63 62 63h63v156h-125c-104 0-188-84-188-187v-157h-125v-156h125v-500h188v500h125l62 156h-187z" horiz-adv-x="1000" />

<glyph glyph-name="favorite-heart-button" unicode="&#xe802;" d="M500-110l-70 70c-260 230-430 385-430 575 0 155 120 275 275 275 85 0 170-40 225-105 55 65 140 105 225 105 155 0 275-120 275-275 0-190-170-345-430-575l-70-70z" horiz-adv-x="1000" />

<glyph glyph-name="instagram" unicode="&#xe803;" d="M724 850h-448c-152 0-276-124-276-276v-448c0-152 124-276 276-276h448c152 0 276 124 276 276v448c0 152-124 276-276 276z m187-724c0-103-84-187-187-187h-448c-103 0-187 84-187 187v448c0 103 84 187 187 187h448c103 0 187-84 187-187v-448z m-411 482c-142 0-258-116-258-258 0-142 116-258 258-258s258 116 258 258c0 142-116 258-258 258z m0-427c-93 0-169 76-169 169 0 93 76 169 169 169s169-76 169-169c0-93-76-169-169-169z m269 502c-18 0-34-7-46-19-13-12-20-29-20-46 0-17 7-34 20-46 12-12 28-19 46-19 17 0 33 7 46 19 12 12 19 29 19 46 0 17-7 34-19 46-13 12-29 19-46 19z" horiz-adv-x="1000" />

<glyph glyph-name="moon-white" unicode="&#xe804;" d="M978 165c-1 9-5 16-11 22-13 14-29 17-47 9-48-22-97-33-149-33-64 0-123 15-177 47-55 32-97 75-129 129-32 54-48 114-48 178 0 50 10 97 30 142 20 45 48 85 86 118 14 14 17 29 9 47-7 18-20 27-39 26-67-3-130-18-189-45-60-27-111-63-154-107-43-44-76-96-102-157-24-61-37-124-37-191 0-67 13-132 40-194 26-61 62-115 107-159 44-45 97-81 159-107 62-27 127-40 194-40 98 0 187 27 270 79 82 53 144 124 184 212 4 7 5 16 3 24z m-278-192c-57-26-116-40-179-40-56 0-110 11-161 34-52 22-96 51-133 89-38 37-67 81-89 132-23 52-34 106-34 162 0 93 28 177 83 250 56 74 127 123 214 149-45-71-67-149-67-232 0-79 19-152 58-220 39-67 92-120 160-159 67-39 140-59 219-59 25 0 48 2 72 6-39-48-87-85-143-112z" horiz-adv-x="1000" />

<glyph glyph-name="sun-white" unicode="&#xe805;" d="M500 600c-137 0-250-113-250-250s113-250 250-250c137 0 250 113 250 250s-113 250-250 250z m0 75c-26 0-49 22-49 49v77c0 27 23 49 49 49s49-22 49-49v-77c0-29-22-49-49-49z m0-648c-26 0-49-22-49-49v-79c0-27 23-49 49-49s49 22 49 49v77c0 29-22 51-49 51z m228 553c-20 20-20 51 0 69l55 55c20 20 51 20 69 0 20-20 20-51 0-69l-55-55c-18-20-49-20-69 0z m-458-458c-20 20-51 20-69 0l-55-55c-20-20-20-51 0-69s51-20 69 0l55 56c20 17 20 48 0 68z m553 228c0 27 22 49 49 49h79c27 0 49-22 49-49s-22-49-49-49h-77c-29 0-51 23-51 49z m-648 0c0 27-22 49-49 49h-77c-27 0-49-22-49-49s22-49 49-49h77c29 0 49 23 49 49z m553-228c20 20 51 20 69 0l55-55c20-20 20-51 0-69s-51-20-69 0l-55 56c-18 17-18 48 0 68z m-458 458c20 20 20 51 0 69l-55 55c-20 20-51 20-69 0-20-20-20-51 0-69l55-55c20-20 51-20 69 0z" horiz-adv-x="1000" />

<glyph glyph-name="right-arrow" unicode="&#xe806;" d="M673 691c-13 14-36 14-50 0-14-14-14-36 0-50l256-255h-844c-19 0-35-16-35-36 0-19 16-35 35-35h844l-256-256c-14-14-14-36 0-50 14-14 37-14 50 0l316 316c15 14 15 36 0 50l-316 316z" horiz-adv-x="1000" />

<glyph glyph-name="vk" unicode="&#xe807;" d="M991 126c-3 5-19 41-99 115-84 78-73 65 28 200 62 82 86 132 79 153-8 21-53 15-53 15l-150-1c0 0-11 2-20-3-8-5-13-16-13-16s-24-64-56-118c-66-113-93-119-104-112-26 16-19 66-19 101 0 110 16 156-33 168-16 4-28 7-70 7-54 1-99 0-125-13-17-8-30-27-22-28 10-1 32-6 44-22 16-21 15-68 15-68s9-130-20-146c-21-11-49 12-108 115-31 53-54 111-54 111s-4 11-12 17c-10 7-23 9-23 9l-143-1c0 0-22 0-30-10-7-8 0-25 0-25s112-262 238-394c116-121 248-113 248-113h60c0 0 18 2 27 12 9 9 9 26 9 26s-2 81 36 92c36 12 83-77 133-111 38-26 67-21 67-21l133 2c0 0 70 4 37 59z" horiz-adv-x="1000" />

<glyph glyph-name="tel" unicode="&#xe808;" d="M978 60l-155 154c-31 31-81 30-113-2l-78-78c-5 3-10 6-15 9-50 27-117 65-187 135-71 71-109 139-136 188-3 5-6 10-8 15l52 52 25 25c32 32 33 83 2 114l-154 154c-31 31-82 30-114-2l-43-43 1-2c-15-18-27-40-36-63-8-22-13-43-16-64-20-169 57-324 267-533 290-290 523-268 533-267 22 3 43 8 65 16 23 9 44 21 63 36l0-1 44 43c32 32 33 83 3 114z" horiz-adv-x="1000" />

<glyph glyph-name="moon-black" unicode="&#xe809;" d="M978 165c-1 9-5 16-11 22-13 14-29 17-47 9-48-22-97-33-149-33-64 0-123 15-177 47-55 32-97 75-129 129-32 54-48 114-48 178 0 50 10 97 30 142 20 45 48 85 86 118 14 14 17 29 9 47-7 18-20 27-39 26-67-3-130-18-189-45-60-27-111-63-154-107-43-44-76-96-102-157-24-61-37-124-37-191 0-67 13-132 40-194 26-61 62-115 107-159 44-45 97-81 159-107 62-27 127-40 194-40 98 0 187 27 270 79 82 53 144 124 184 212 4 7 5 16 3 24z" horiz-adv-x="1000" />

<glyph glyph-name="sun-black" unicode="&#xe80a;" d="M171 350c0 24-19 43-42 43h-86c-24 0-43-19-43-43 0-24 19-43 43-43h86c23 0 42 19 42 43z m43-243c-11 0-22-4-30-12l-57-58c-8-7-13-18-13-30 0-24 19-43 43-43 12 0 22 5 30 13l57 57c8 8 13 19 13 30 0 24-19 43-43 43z m286 572c24 0 43 19 43 42v86c0 24-19 43-43 43s-43-19-43-43v-86c0-23 19-42 43-42z m286-86c12 0 22 5 30 12l57 58c8 7 13 18 13 30 0 24-19 43-43 43-12 0-23-5-30-13l-58-57c-7-8-12-18-12-30 0-24 19-43 43-43z m-602 12c8-7 19-12 30-12 24 0 43 19 43 43 0 11-4 22-12 30l-58 57c-7 8-18 13-30 13-24 0-43-19-43-43 0-12 5-23 13-30l57-58z m773-212h-86c-23 0-42-19-42-43s19-43 42-43h86c24 0 43 20 43 43 0 24-19 43-43 43z m-141-298c-8 7-18 12-30 12-24 0-43-19-43-43 0-11 5-22 12-30l58-57c7-8 18-13 30-13 24 0 43 20 43 43 0 12-5 23-13 31l-57 57z m-316-74c-24 0-43-19-43-42v-86c0-24 19-43 43-43s43 19 43 43v86c0 23-19 42-43 42z m0 629c-165 0-300-135-300-300s135-300 300-300 300 135 300 300-135 300-300 300z m0-514c-118 0-214 96-214 214 0 118 96 214 214 214s214-96 214-214-96-214-214-214z" horiz-adv-x="1000" />

<glyph glyph-name="eye" unicode="&#xe80b;" d="M0 350q6 49 64 110 79 80 176 129 129 60 260 60 137-2 260-60 103-53 176-129 64-73 64-110-6-49-64-109-79-80-176-129-129-61-260-61-137 2-260 61-103 53-176 129-64 72-64 109z m264 0q0-94 69-159t167-65 167 65 69 159-69 159-167 66-167-66-69-159z m86 1q0 60 44 102t106 42 106-42 44-102-44-102-106-43-106 43-44 102z" horiz-adv-x="1000" />

<glyph glyph-name="arrow-01" unicode="&#xe80c;" d="M465-134c20-21 52-21 72 0 21 20 21 52 0 70l-365 363h1848c27 0 50 23 50 50 0 27-23 52-50 52h-1848l363 363c20 21 20 52 0 73-20 20-52 20-72 0l-447-452c-21-20-21-52 0-70l449-449z" horiz-adv-x="2093" />

<glyph glyph-name="double-arrow-left" unicode="&#xe80e;" d="M162 350l343 389c26 25 26 66 0 92-25 25-66 25-92 0l-384-434c-13-13-19-30-19-47 0-17 6-34 19-47l384-434c26-25 67-25 92 0 26 25 26 67 0 92l-343 389z m465 0l343 389c26 25 26 67 1 92-26 25-67 25-93 0l-383-434c-13-13-20-30-19-47-1-17 6-34 19-47l383-434c26-25 67-25 92 0 26 25 26 67 0 92l-343 389z" horiz-adv-x="1000" />

<glyph glyph-name="globe" unicode="&#xe812;" d="M294 562h186v-191h-207c1 68 8 132 21 191z m0-424h186v192h-207c1-69 8-133 21-192z m186 465v246c-76-15-140-110-176-246h176z m269-465h205c27 59 43 123 46 192h-232c-1-69-7-133-19-192z m0 424c12-59 18-123 19-191h232c-3 68-19 132-46 191h-205z m-9 41h192c-67 114-177 199-309 232 51-50 91-131 117-232z m-260-752v246h-176c36-136 100-231 176-246z m216 752c-36 136-100 231-175 246v-246h175z m31-273h-206v-192h185c13 59 20 123 21 192z m-727 0c3-69 19-133 46-192h205c-12 59-18 123-19 192h-232z m260-233h-192c67-114 177-199 309-232-51 50-91 131-117 232z m480 0c-26-101-66-182-117-232 132 33 242 118 309 232h-192z m-480 506c26 101 66 182 117 232-132-33-242-118-309-232h192z m446-41h-185v-191h206c-1 68-8 132-21 191z m-660 0c-27-59-43-123-46-191h232c1 68 7 132 19 191h-205z m475-465v-246c75 15 139 110 175 246h-175z" horiz-adv-x="1000" />

<glyph glyph-name="maps-and-flags" unicode="&#xe816;" d="M500 850c-200 0-362-162-362-362 0-248 324-612 338-627 13-15 35-15 48 0 14 15 338 379 338 627 0 200-162 362-362 362z m0-544c-100 0-182 81-182 182s82 182 182 182 182-82 182-182-81-182-182-182z" horiz-adv-x="1000" />

<glyph glyph-name="play-next-button" unicode="&#xe81b;" d="M0-150l708 500-708 500v-1000z m833 1000v-1000h167v1000h-167z" horiz-adv-x="1000" />

<glyph glyph-name="skype-logo" unicode="&#xe81d;" d="M958 278c4 23 6 47 6 72 0 256-208 464-464 464-25 0-49-2-72-6-43 27-94 42-148 42-154 0-280-125-280-280 0-54 15-105 42-148-4-23-6-47-6-72 0-256 208-464 464-464 25 0 49 2 72 6 43-27 94-42 148-42 155 0 280 125 280 280 0 54-15 105-42 148z m-238-139c-19-28-48-50-86-66-38-16-82-24-134-24-61 0-113 11-153 33-29 15-52 36-70 62-18 27-27 52-27 77 0 15 6 28 17 38 11 11 25 16 42 16 14 0 26-4 35-12 10-9 18-21 24-36 8-19 17-34 26-46 9-12 21-22 38-30 16-8 38-12 65-12 37 0 67 8 90 24 23 16 34 35 34 59 0 19-6 34-18 45-13 12-29 21-48 27-20 6-47 13-80 20-45 10-83 21-113 34-31 14-55 31-73 54-18 23-27 52-27 85 0 33 10 61 29 86 19 25 46 45 82 58 36 13 77 20 126 20 38 0 71-4 99-13 29-9 52-21 71-36 18-14 32-30 41-46 8-17 13-33 13-48 0-15-6-28-17-39-11-12-25-18-41-18-15 0-27 4-35 11-7 7-16 18-24 33-12 22-25 39-41 51-15 12-40 18-75 18-32 0-58-7-78-20-19-13-29-28-29-46 0-11 4-21 10-29 7-8 16-15 27-21 12-6 24-10 36-14 12-3 32-8 60-15 36-7 67-16 96-25 29-9 53-21 73-34 21-13 36-30 48-51 11-20 17-45 17-74 0-36-10-68-30-96z" horiz-adv-x="1000" />

<glyph glyph-name="www" unicode="&#xe824;" d="M1000 463v-138c0-51-41-92-92-92-19 0-38 6-52 17-15-11-34-17-53-17-51 0-92 41-92 92v138h78v-138c0-8 6-14 14-14s13 6 13 14v138h79v-138c0-8 6-14 13-14s14 6 14 14v138z m-855-213c15-11 33-17 52-17 51 0 92 41 92 92v138h-78v-138c0-8-6-14-14-14s-13 6-13 14v138h-78v-138c0-8-7-14-14-14s-14 6-14 14v138h-78v-138c0-51 41-92 92-92 19 0 38 6 53 17z m214 213v-138c0-51 42-92 92-92 20 0 38 6 53 17 15-11 33-17 53-17 50 0 91 41 91 92v138h-78v-138c0-8-6-14-13-14s-14 6-14 14v138h-78v-138c0-8-6-14-14-14s-13 6-13 14v138z m610 78h-934l34 59c43 75 105 137 179 181 77 45 165 69 254 69s177-24 254-69c74-44 136-106 179-181z m-612 79h106v142c-40-20-78-71-106-142z m184 0h106c-28 71-66 122-106 142z m-363 0h96c14 43 32 81 52 113-57-26-108-65-148-113z m648 0c-40 48-91 87-148 113 20-32 38-70 52-113z m-791-461h934l-34-59c-43-75-105-137-179-181-77-45-165-69-254-69s-177 24-254 69c-74 44-136 106-179 181z m612-78h-106v-143c40 20 78 71 106 143z m-184 0h-106c28-72 66-123 106-143z m364 0h-97c-14-44-32-82-52-114 57 26 108 65 149 114z m-649 0c40-49 91-88 148-114-20 32-38 70-52 114z m0 0" horiz-adv-x="1000" />

<glyph glyph-name="comment" unicode="&#xf4ac;" d="M0 404q0 67 27 130t75 114 114 89 145 59 166 21 166-21 146-59 113-89 76-114 26-130q0-84-42-160t-112-131-168-88-205-33q-105 0-201 31l-121-85q-67-42-94-24t-12 100l25 125q-60 55-92 122t-32 143z" horiz-adv-x="1054.7" />
</font>
</defs>
</svg>
